HIERARCHY
ROOT Hips
{
    OFFSET 0.000000 0.000000 0.000000
    CHANNELS 6 Xposition Yposition Zposition Zrotation Xrotation Yrotation
    JOINT Spine
    {
        OFFSET -0.000000 0.079523 0.000000
        CHANNELS 3 Zrotation Xrotation Yrotation
        JOINT Spine1
        {
            OFFSET -0.000000 0.192445 0.000000
            CHANNELS 3 Zrotation Xrotation Yrotation
            JOINT Neck
            {
                OFFSET -0.000000 0.191655 0.017423
                CHANNELS 3 Zrotation Xrotation Yrotation
                JOINT Head
                {
                    OFFSET -0.000000 0.135771 -0.019396
                    CHANNELS 3 Zrotation Xrotation Yrotation
                    End Site
                    {
                        OFFSET -0.000000 0.242449 0.000000
                    }
                }
            }
            JOINT LeftShoulder
            {
                OFFSET 0.039141 0.175231 -0.001157
                CHANNELS 3 Zrotation Xrotation Yrotation
                JOINT LeftArm
                {
                    OFFSET 0.104248 0.000000 0.000000
                    CHANNELS 3 Zrotation Xrotation Yrotation
                    JOINT LeftForeArm
                    {
                        OFFSET 0.307569 0.000000 0.000000
                        CHANNELS 3 Zrotation Xrotation Yrotation
                        JOINT LeftHand
                        {
                            OFFSET 0.230447 0.000000 0.000000
                            CHANNELS 3 Zrotation Xrotation Yrotation
                            End Site
                            {
                                OFFSET 0.145469 0.000000 0.000000
                            }
                        }
                    }
                }
            }
            JOINT RightShoulder
            {
                OFFSET -0.038425 0.175231 -0.001157
                CHANNELS 3 Zrotation Xrotation Yrotation
                JOINT RightArm
                {
                    OFFSET -0.104248 0.000000 0.000000
                    CHANNELS 3 Zrotation Xrotation Yrotation
                    JOINT RightForeArm
                    {
                        OFFSET -0.307569 0.000000 0.000000
                        CHANNELS 3 Zrotation Xrotation Yrotation
                        JOINT RightHand
                        {
                            OFFSET -0.230447 0.000000 0.000000
                            CHANNELS 3 Zrotation Xrotation Yrotation
                            End Site
                            {
                                OFFSET -0.145469 0.000000 0.000000
                            }
                        }
                    }
                }
            }
        }
    }
    JOINT LeftUpLeg
    {
        OFFSET 0.096979 0.000000 0.000000
        CHANNELS 3 Zrotation Xrotation Yrotation
        JOINT LeftLeg
        {
            OFFSET -0.000000 -0.427459 0.000000
            CHANNELS 3 Zrotation Xrotation Yrotation
            JOINT LeftFoot
            {
                OFFSET -0.000000 -0.447558 0.000000
                CHANNELS 3 Zrotation Xrotation Yrotation
                JOINT LeftToeBase
                {
                    OFFSET -0.000000 -0.063037 0.145469
                    CHANNELS 3 Zrotation Xrotation Yrotation
                    End Site
                    {
                        OFFSET -0.000000 0.000000 0.038792
                    }
                }
            }
        }
    }
    JOINT RightUpLeg
    {
        OFFSET -0.096979 0.000000 0.000000
        CHANNELS 3 Zrotation Xrotation Yrotation
        JOINT RightLeg
        {
            OFFSET -0.000000 -0.427459 0.000000
            CHANNELS 3 Zrotation Xrotation Yrotation
            JOINT RightFoot
            {
                OFFSET -0.000000 -0.447558 0.000000
                CHANNELS 3 Zrotation Xrotation Yrotation
                JOINT RightToeBase
                {
                    OFFSET -0.000000 -0.063037 0.145469
                    CHANNELS 3 Zrotation Xrotation Yrotation
                    End Site
                    {
                        OFFSET -0.000000 0.000000 0.038792
                    }
                }
            }
        }
    }
}
MOTION
Frames:    10
Frame Time:    0.008333
1.310533    0.897497    -0.774034    -0.976286    5.583924    -4.951365    8.483307    -9.541503    5.548245    -7.309876    3.026132    5.038221    -11.578742    13.016091    -0.339917    10.996799    -1.789009    -5.487332    -6.159285    13.994229    1.612319    -22.545279    1.878445    -9.403727    -80.493637    21.130709    -24.853205    22.114672    40.122955    10.897641    -1.842736    17.982389    -7.147289    75.614662    24.297180    22.379433    5.338882    0.552831    11.815207    -10.625282    24.295532    0.437392    -0.546581    -5.845707    -1.624480    0.857721    10.967349    -6.010477    1.790891    -13.460846    6.760381    0.000000    0.000000    0.000000    -1.219238    -3.828700    19.622690    4.947311    8.540501    7.922418    -1.506636    -14.947357    -23.350899    0.000000    0.000000    0.000000    
1.310732    0.897506    -0.773998    -0.974526    5.582419    -4.935302    8.500693    -9.577348    5.544784    -7.325304    3.063819    5.033306    -11.555172    13.008472    -0.340017    11.024940    -1.848588    -5.496887    -6.157278    13.986067    1.655382    -33.055107    4.004564    -13.434765    -69.185654    16.285839    -23.441689    21.338543    40.071632    10.410656    -1.798378    17.949295    -7.123486    75.619812    24.143768    22.348267    5.440306    0.562252    11.792466    -10.638057    24.410566    0.441596    -0.566075    -5.847536    -1.577222    0.871857    10.973902    -6.048910    1.738341    -13.463249    6.675241    0.000000    0.000000    0.000000    -1.228387    -3.818765    19.614386    4.928306    8.530745    7.869047    -1.477242    -14.952426    -23.287352    0.000000    0.000000    0.000000    
1.310907    0.897506    -0.773980    -0.978664    5.579939    -4.914331    8.516786    -9.603759    5.537923    -7.336317    3.092007    5.025177    -11.578252    12.961996    -0.345504    11.136870    -1.846676    -5.502417    -6.149718    13.975276    1.719629    -38.723724    5.460776    -15.450831    -62.011421    13.366719    -22.065434    20.175106    39.883072    9.560032    -1.748291    17.902063    -7.086875    75.551338    24.387026    22.293373    5.244258    0.545705    11.873253    -10.654542    24.113794    0.389534    -0.575005    -5.838396    -1.655494    0.859597    10.961194    -5.990586    1.760229    -13.455127    6.685609    0.000000    0.000000    0.000000    -1.251889    -3.814573    19.642639    4.964486    8.524683    7.877104    -1.492303    -14.944823    -23.353334    0.000000    0.000000    0.000000    
1.311095    0.897523    -0.773917    -0.978669    5.579335    -4.905706    8.525392    -9.646124    5.537606    -7.339954    3.134589    5.023675    -11.579762    12.923381    -0.349548    11.221934    -1.856313    -5.515666    -6.151900    13.966202    1.760556    -42.130459    6.434225    -16.597624    -57.187168    11.505671    -20.943291    19.281939    39.591236    8.687007    -1.660490    17.837978    -7.079036    75.496193    24.327190    22.259909    5.309702    0.550227    11.824438    -10.770793    24.106571    0.416195    -0.583611    -5.827823    -1.692091    0.846294    10.947085    -5.992438    1.829446    -13.439441    6.816038    0.000000    0.000000    0.000000    -1.274540    -3.809409    19.650169    4.985922    8.519965    7.914613    -1.495034    -14.952314    -23.408609    0.000000    0.000000    0.000000    
1.311257    0.897522    -0.773900    -0.978079    5.577631    -4.891026    8.526677    -9.672796    5.532353    -7.341518    3.160959    5.018120    -11.580504    12.850633    -0.357152    11.309283    -1.810559    -5.521636    -6.135664    13.959662    1.819866    -44.348137    7.105804    -17.317270    -53.814499    10.286100    -20.114008    18.418242    39.422039    8.111023    -1.621925    17.786734    -7.034038    75.531662    24.219114    22.189981    5.356841    0.554454    11.810134    -10.859477    24.200918    0.425275    -0.600501    -5.825240    -1.679430    0.854280    10.944489    -5.896901    1.807274    -13.436906    6.710694    0.000000    0.000000    0.000000    -1.286683    -3.808431    19.658514    4.994051    8.520234    7.850687    -1.473461    -14.958501    -23.377165    0.000000    0.000000    0.000000    
1.311414    0.897532    -0.773870    -0.976681    5.576804    -4.882785    8.539257    -9.705018    5.531983    -7.349912    3.194969    5.016415    -11.583076    12.877172    -0.354468    11.374074    -1.932359    -5.541162    -6.133023    13.953298    1.856459    -45.870060    7.583428    -17.798264    -51.362488    9.431260    -19.467899    17.815512    39.325935    7.583013    -1.582312    17.744408    -6.992367    75.545624    24.271702    22.142874    5.265608    0.546183    11.835680    -10.827956    24.090542    0.421693    -0.624321    -5.809861    -1.664299    0.885023    10.915300    -5.916405    1.738591    -13.429991    6.597398    0.000000    0.000000    0.000000    -1.296460    -3.813015    19.589603    4.965740    8.549325    7.968081    -1.461657    -14.964923    -23.384701    0.000000    0.000000    0.000000    
1.311563    0.897524    -0.773885    -0.974675    5.576077    -4.873781    8.544455    -9.741035    5.530702    -7.352098    3.231010    5.014183    -11.533202    12.833348    -0.357501    11.364211    -1.925839    -5.576037    -6.113026    13.954581    1.892642    -46.962799    7.934570    -18.138430    -49.551151    8.846352    -19.027880    17.246031    39.237484    7.283729    -1.531518    17.707556    -6.947304    75.637253    23.695276    22.133112    5.700094    0.582011    11.650744    -11.170616    24.592094    0.578395    -0.638599    -5.811106    -1.685336    0.896274    10.910146    -6.035293    1.759966    -13.426306    6.698400    0.000000    0.000000    0.000000    -1.316667    -3.818883    19.652788    5.005054    8.551988    7.886279    -1.446953    -14.985034    -23.399506    0.000000    0.000000    0.000000    
1.311696    0.897519    -0.773889    -0.975499    5.574532    -4.859861    8.534289    -9.775537    5.524980    -7.338652    3.264776    5.008471    -11.535872    12.800984    -0.360915    11.456676    -1.945054    -5.575956    -6.092123    13.953330    1.937738    -47.771061    8.198693    -18.391838    -48.141434    8.512178    -18.916756    16.899048    38.151455    7.093685    -1.457875    17.644825    -6.904821    75.543137    23.509642    22.171539    6.019790    0.606346    11.493389    -11.206399    24.794584    0.754991    -0.641714    -5.808105    -1.691237    0.884719    10.902835    -6.051796    1.805622    -13.426970    6.717817    0.000000    0.000000    0.000000    -1.312498    -3.831440    19.570730    4.979021    8.589155    7.915851    -1.433904    -14.996222    -23.359222    0.000000    0.000000    0.000000    
1.311823    0.897536    -0.773838    -0.976698    5.573194    -4.846297    8.534020    -9.820524    5.521330    -7.332870    3.309570    5.004061    -11.503316    12.751957    -0.364981    11.483552    -1.953392    -5.560526    -6.079915    13.950551    1.976515    -48.384506    8.401662    -18.582947    -47.095242    8.193777    -18.666945    16.442890    38.255039    6.948863    -1.416887    17.618446    -6.840698    75.534950    23.686760    22.125824    5.821155    0.593277    11.629307    -10.920981    24.594429    0.639679    -0.647494    -5.797920    -1.733361    0.872342    10.885569    -6.037970    1.810646    -13.420995    6.726075    0.000000    0.000000    0.000000    -1.322286    -3.828086    19.575750    4.987691    8.589682    7.906945    -1.433715    -14.999719    -23.374317    0.000000    0.000000    0.000000    
1.311983    0.897547    -0.773842    -0.973726    5.572617    -4.837320    8.533304    -9.856441    5.519412    -7.332283    3.345338    5.001709    -11.506230    12.754479    -0.364808    11.581548    -2.036770    -5.512721    -6.065153    13.948328    2.012284    -48.863819    8.561734    -18.732077    -46.285397    7.970119    -18.514563    16.221012    38.273052    6.791280    -1.339356    17.567144    -6.827042    75.521492    23.678015    22.099787    5.799379    0.591004    11.628531    -10.861328    24.591522    0.646146    -0.662470    -5.796696    -1.731460    0.876943    10.880299    -6.035915    1.808866    -13.415009    6.745843    0.000000    0.000000    0.000000    -1.343504    -3.829709    19.656523    5.045261    8.575512    7.768194    -1.452122    -14.984698    -23.390162    0.000000    0.000000    0.000000    
